<svg width="32" height="32" viewBox="0 0 32 32" fill="none" xmlns="http://www.w3.org/2000/svg">
<path d="M22.1427 18.9888C25.9839 13.5646 24.6992 6.0537 19.2751 2.21336C13.8509 -1.62697 6.33996 -0.343189 2.49962 5.08191C-1.34072 10.5061 -0.0569348 18.0161 5.36817 21.8564C9.23971 24.5974 14.3583 24.8085 18.4418 22.3969L27.3145 31.2164C28.2726 32.2249 29.8665 32.2652 30.875 31.3072C31.8835 30.3501 31.9239 28.7562 30.9668 27.7477C30.9365 27.7156 30.9071 27.6862 30.875 27.6559L22.1427 18.9888ZM12.3138 19.811C8.0275 19.8119 4.55239 16.3396 4.54963 12.0532C4.54872 7.76694 8.02108 4.29182 12.3083 4.28999C16.5891 4.28815 20.0624 7.75501 20.0707 12.0358C20.078 16.323 16.6075 19.8037 12.3193 19.811C12.3175 19.811 12.3166 19.811 12.3138 19.811Z" fill="#C91D14"/>
</svg>
