<svg width="60" height="60" viewBox="0 0 60 60" fill="none" xmlns="http://www.w3.org/2000/svg">
<g clip-path="url(#clip0)">
<path d="M24.2235 5.07252V25.0064C24.2235 26.7683 22.7949 28.1966 21.0325 28.1966H12.3642V31.7999H21.1889C24.8607 31.7999 27.8371 28.8242 27.8371 25.1534V5.07252C27.8371 4.0749 27.0282 3.26611 26.0302 3.26611C25.0325 3.26611 24.2235 4.0749 24.2235 5.07252Z" fill="#FFD3BE"/>
<path d="M24.2235 54.9275V34.9936C24.2235 33.2317 22.7949 31.8034 21.0325 31.8034H12.3642V28.2001H21.1889C24.8607 28.2001 27.8371 31.1758 27.8371 34.8466V54.9274C27.8371 55.925 27.0282 56.7338 26.0302 56.7338C25.0325 56.7339 24.2235 55.9251 24.2235 54.9275Z" fill="#FFA991"/>
<path d="M5.92973 17.4281C-3.01886 26.0435 -1.67467 44.403 8.84977 48.5541C19.0229 52.5668 22.5973 41.7046 18.1752 36.4513C14.1694 31.6927 15.2546 28.9725 19.1358 21.1537C23.0169 13.335 14.4968 9.17987 5.92973 17.4281Z" fill="#FF5A7F"/>
<path d="M19.1359 21.1537C20.9439 17.5115 20.06 14.6651 17.7346 13.4963C19.167 15.041 19.3299 17.5168 17.5235 20.3796C12.8066 27.8548 11.4461 30.4773 15.3186 35.5519C16.5278 37.1366 17.0246 39.1157 16.8785 41.0299C16.8145 41.8684 17.3283 42.868 17.0234 43.643C16.6914 44.4869 15.5188 45.0967 14.9154 45.7696C13.2965 47.5752 10.7284 48.5852 7.35666 47.8356C7.83218 48.1075 8.32936 48.349 8.84988 48.5542C19.023 52.5669 22.5974 41.7047 18.1753 36.4514C14.1694 31.6928 15.2548 28.9726 19.1359 21.1537Z" fill="#D04D7F"/>
<path d="M19.3289 14.8661C17.3107 11.9442 11.6313 11.9388 5.92971 17.4281C-2.99396 26.0194 -1.6811 44.299 8.76278 48.5176C3.59528 44.2286 1.89713 35.6382 3.92225 28.2002C4.20096 27.1765 3.4287 25.8705 3.84919 24.9047C4.23181 24.0258 5.79495 23.4806 6.296 22.672C8.89318 18.4813 14.5466 14.041 19.3289 14.8661Z" fill="#FF8595"/>
<path d="M16.3624 27.2764C15.9976 27.1585 14.4092 27.1964 13.6641 25.3461C13.2984 24.4379 13.3298 23.5379 13.3309 23.5108C13.3574 22.9787 12.9485 22.5248 12.416 22.4962C11.8795 22.4668 11.4265 22.8772 11.3978 23.4109C11.3909 23.5407 11.3442 24.7155 11.839 25.994C12.3225 27.2439 13.4076 28.7927 15.8285 29.1403C15.949 28.5538 16.1284 27.937 16.3624 27.2764Z" fill="#846069"/>
<path d="M15.6496 30.8374C14.1627 30.8731 11.3723 31.9857 10.957 36.0171C10.9022 36.5488 11.2888 37.0242 11.8205 37.079C12.3509 37.1338 12.8274 36.7481 12.8823 36.2155C13.2212 32.9263 15.4708 32.7772 15.7344 32.7712C15.8078 32.7706 15.879 32.7612 15.9477 32.7451C15.7501 32.1168 15.6537 31.4889 15.6496 30.8374Z" fill="#846069"/>
<path d="M11.6995 30.6287H9.13838C8.60395 30.6287 8.17064 30.1954 8.17064 29.6609C8.17064 29.1265 8.60395 28.6932 9.13838 28.6932H11.6994C12.2338 28.6932 12.6671 29.1265 12.6671 29.6609C12.6671 30.1954 12.2339 30.6287 11.6995 30.6287Z" fill="#846069"/>
<path d="M35.7765 54.9275V34.9936C35.7765 33.2317 37.2051 31.8034 38.9675 31.8034H47.6358V28.2001H38.8111C35.1393 28.2001 32.1629 31.1758 32.1629 34.8466V54.9274C32.1629 55.925 32.9718 56.7338 33.9698 56.7338C34.9678 56.7338 35.7765 55.9251 35.7765 54.9275Z" fill="#FFA991"/>
<path d="M35.7765 5.07252V25.0064C35.7765 26.7683 37.2051 28.1966 38.9675 28.1966H47.6358V31.7999H38.8111C35.1393 31.7999 32.1629 28.8242 32.1629 25.1534V5.07252C32.1629 4.0749 32.9718 3.26611 33.9698 3.26611C34.9678 3.26611 35.7765 4.0749 35.7765 5.07252Z" fill="#FFD3BE"/>
<path d="M54.0703 17.4281C63.0189 26.0435 61.6747 44.403 51.1502 48.5541C40.9771 52.5668 37.4028 41.7046 41.8248 36.4513C45.8306 31.6927 44.7454 28.9725 40.8642 21.1537C36.9831 13.335 45.5032 9.17987 54.0703 17.4281Z" fill="#FF5A7F"/>
<path d="M44.0803 37.0796C48.0861 32.321 47.0008 29.6008 43.1197 21.782C40.4934 16.491 43.5465 12.8793 48.4494 13.6519C42.304 11.2313 37.8541 15.0898 40.8641 21.1538C44.7452 28.9727 45.8306 31.6929 41.8247 36.4514C38.224 40.7288 39.9255 48.7246 46.174 49.381C41.8218 47.2858 40.9597 40.7865 44.0803 37.0796Z" fill="#FF8595"/>
<path d="M54.0703 17.4281C50.9799 14.4528 47.8958 13.0919 45.3976 12.9343C47.377 13.5668 49.5662 14.8637 51.7588 16.9747C56.2332 21.2825 58.1342 28.0262 57.6012 34.2119C57.5148 35.2149 56.5556 36.3279 56.3417 37.2887C56.1278 38.2495 56.6595 39.0585 56.3194 39.9517C54.9024 43.6741 52.3945 46.6983 48.8388 48.1008C47.186 48.7527 45.7086 49.01 44.4103 48.9645C46.1633 49.6355 48.4185 49.6316 51.1502 48.5542C61.6747 44.4031 63.0189 26.0435 54.0703 17.4281Z" fill="#D04D7F"/>
<path d="M47.5882 22.4982C47.0561 22.5243 46.6453 22.9778 46.669 23.5101C46.6694 23.5191 46.7053 24.4285 46.3357 25.3461C45.5921 27.1929 44.0133 27.1548 43.6374 27.2763C43.8714 27.9365 44.0506 28.553 44.171 29.1391C47.8846 28.605 48.6962 25.1707 48.6019 23.4108C48.5736 22.8789 48.1208 22.4716 47.5882 22.4982Z" fill="#846069"/>
<path d="M44.3504 30.8374C44.3463 31.4888 44.2498 32.1166 44.0525 32.7448C44.1236 32.7614 44.1973 32.7712 44.2735 32.7712C45.4951 32.7712 46.8716 33.8268 47.1178 36.2155C47.1719 36.7406 47.6406 37.1339 48.1796 37.079C48.7113 37.0242 49.0979 36.5488 49.0431 36.0171C48.6276 31.9855 45.8373 30.8731 44.3504 30.8374Z" fill="#846069"/>
<path d="M50.8615 30.6287H48.3005C47.766 30.6287 47.3327 30.1954 47.3327 29.6609C47.3327 29.1265 47.766 28.6932 48.3005 28.6932H50.8615C51.3959 28.6932 51.8292 29.1265 51.8292 29.6609C51.8292 30.1954 51.3959 30.6287 50.8615 30.6287Z" fill="#846069"/>
<path d="M5.45214 26.5448C5.83181 26.5448 6.1396 26.2371 6.1396 25.8574C6.1396 25.4777 5.83181 25.1699 5.45214 25.1699C5.07246 25.1699 4.76468 25.4777 4.76468 25.8574C4.76468 26.2371 5.07246 26.5448 5.45214 26.5448Z" fill="#FFAABB"/>
<path d="M15.8725 43.9321C16.1472 43.6816 16.2293 43.3244 16.0559 43.1342C15.8825 42.9441 15.5192 42.9931 15.2445 43.2436C14.9698 43.4942 14.8877 43.8514 15.0611 44.0415C15.2345 44.2317 15.5978 44.1827 15.8725 43.9321Z" fill="#D04D7F"/>
<path d="M56.9923 34.2815C57.1107 33.9275 57.0058 33.5734 56.758 33.4905C56.5102 33.4077 56.2134 33.6275 56.0951 33.9814C55.9767 34.3354 56.0816 34.6895 56.3294 34.7724C56.5771 34.8552 56.8739 34.6354 56.9923 34.2815Z" fill="#D04D7F"/>
</g>
<defs>
<clipPath id="clip0">
<rect width="60" height="60" fill="white"/>
</clipPath>
</defs>
</svg>
